<svg xmlns="http://www.w3.org/2000/svg" xmlns:xlink="http://www.w3.org/1999/xlink" xmlns:lucid="lucid" width="1222.71" height="2105"><g transform="translate(-79 -39)" lucid:page-tab-id="YGcM5DNywbTK"><g filter="url(#a)"><path d="M601.5 447.22c0-4.42 3.58-8 8-8h223.34c4.42 0 8 3.58 8 8v50.44c0 4.42-3.58 8-8 8H609.5c-4.42 0-8-3.58-8-8z" stroke="#3d4752" stroke-width="4" fill="#fff"/><use xlink:href="#b" transform="matrix(1,0,0,1,616.5,454.21883764477496) translate(22.407407407407405 22.944444444444443)"/><use xlink:href="#c" transform="matrix(1,0,0,1,616.5,454.21883764477496) translate(66.79012345679013 22.944444444444443)"/><use xlink:href="#d" transform="matrix(1,0,0,1,616.5,454.21883764477496) translate(116.17283950617283 22.944444444444443)"/></g><g filter="url(#e)"><path d="M397.62 60c19.37 0 35.08 19.25 35.08 43s-15.7 43-35.08 43H292.38c-19.37 0-35.08-19.25-35.08-43s15.7-43 35.08-43z" stroke="#3d4752" stroke-width="4" fill="#ffdba9"/><use xlink:href="#f" transform="matrix(1,0,0,1,272.299895162993,75) translate(6.425925925925924 32.44444444444444)"/><use xlink:href="#g" transform="matrix(1,0,0,1,272.299895162993,75) translate(59.45061728395061 32.44444444444444)"/></g><g filter="url(#h)"><path d="M225.33 255c0-4.42 3.58-8 8-8h223.34c4.42 0 8 3.58 8 8v70c0 4.42-3.58 8-8 8H233.33c-4.42 0-8-3.58-8-8z" stroke="#3d4752" stroke-width="4" fill="#fff"/><use xlink:href="#i" transform="matrix(1,0,0,1,240.3305785123967,262) translate(9.413580246913583 17.77777777777778)"/><use xlink:href="#c" transform="matrix(1,0,0,1,240.3305785123967,262) translate(94.4753086419753 17.77777777777778)"/><use xlink:href="#j" transform="matrix(1,0,0,1,240.3305785123967,262) translate(143.85802469135803 17.77777777777778)"/><use xlink:href="#k" transform="matrix(1,0,0,1,240.3305785123967,262) translate(84.10493827160494 47.111111111111114)"/></g><path d="M468.67 290h120.7" stroke="#3d4752" stroke-width="4" fill="none"/><path d="M468.72 292h-2.05v-4h2.05z" fill="#3d4752"/><path d="M605.64 290l-14.27 4.64v-9.28z" stroke="#3d4752" stroke-width="4" fill="#3d4752"/><path d="M345 150v46.5h-.17v25.76" stroke="#3d4752" stroke-width="4" fill="none"/><path d="M347 150.05h-4V148h4z" fill="#3d4752"/><path d="M344.83 238.53l-4.64-14.27h9.26z" stroke="#3d4752" stroke-width="4" fill="#3d4752"/><g filter="url(#e)"><path d="M769.95 2037c19.38 0 35.08 19.25 35.08 43s-15.7 43-35.08 43H664.7c-19.36 0-35.07-19.25-35.07-43s15.7-43 35.08-43z" stroke="#3d4752" stroke-width="4" fill="#ffdba9"/><use xlink:href="#l" transform="matrix(1,0,0,1,644.6346059067946,2052) translate(10.098765432098759 32.44444444444444)"/><use xlink:href="#g" transform="matrix(1,0,0,1,644.6346059067946,2052) translate(55.77777777777777 32.44444444444444)"/></g><g filter="url(#m)"><path d="M714.13 233.8c3.9-2.1 10.2-2.1 14.08 0l97.1 52.4c3.9 2.1 3.9 5.5 0 7.6l-97.1 52.4c-3.88 2.1-10.18 2.1-14.07 0l-97.1-52.4c-3.88-2.1-3.88-5.5 0-7.6z" stroke="#3d4752" stroke-width="4" fill="#fff"/><use xlink:href="#n" transform="matrix(1,0,0,1,625,245) translate(16.31481481481481 34.77777777777778)"/><use xlink:href="#c" transform="matrix(1,0,0,1,625,245) translate(39.771604938271594 34.77777777777778)"/><use xlink:href="#o" transform="matrix(1,0,0,1,625,245) translate(89.15432098765432 34.77777777777778)"/><use xlink:href="#p" transform="matrix(1,0,0,1,625,245) translate(150.820987654321 34.77777777777778)"/><use xlink:href="#q" transform="matrix(1,0,0,1,625,245) translate(50.26543209876542 64.11111111111111)"/></g><g filter="url(#r)"><path d="M714.25 865.9c3.82-2.22 10.02-2.22 13.84 0l89.4 51.96c3.82 2.22 3.82 5.82 0 8.04l-89.4 51.96c-3.83 2.22-10.03 2.22-13.85 0l-89.4-51.96c-3.83-2.22-3.83-5.82 0-8.04z" stroke="#3d4752" stroke-width="4" fill="#fff"/><use xlink:href="#s" transform="matrix(1,0,0,1,632.9194214876034,876.8791679999995) translate(49.7037037037037 34.77777777777778)"/><use xlink:href="#t" transform="matrix(1,0,0,1,632.9194214876034,876.8791679999995) translate(31.83333333333333 64.11111111111111)"/></g><g filter="url(#a)"><path d="M232 896.66c0-4.42 3.58-8 8-8h223.34c4.42 0 8 3.58 8 8v50.44c0 4.42-3.58 8-8 8H240c-4.42 0-8-3.58-8-8z" stroke="#3d4752" stroke-width="4" fill="#fff"/><use xlink:href="#u" transform="matrix(1,0,0,1,247,903.6582257383079) translate(40.956790123456784 22.944444444444443)"/><use xlink:href="#v" transform="matrix(1,0,0,1,247,903.6582257383079) translate(71.69753086419752 22.944444444444443)"/><use xlink:href="#w" transform="matrix(1,0,0,1,247,903.6582257383079) translate(117.31481481481481 22.944444444444443)"/><use xlink:href="#x" transform="matrix(1,0,0,1,247,903.6582257383079) translate(143.179012345679 22.944444444444443)"/></g><path d="M524.87 923.88h-28.8v-4h28.8zm93 0h-49.52v-4h49.52z" fill="#494949"/><path d="M619.86 921.9l.67 1.98h-2.7v-4h2.7zM494.08 926.5l-14.27-4.62 14.28-4.64z" fill="#494949"/><path d="M496.08 929.27l-22.74-7.4 22.74-7.38zm-9.8-7.4l5.8 1.9V920z" fill="#494949"/><use xlink:href="#y" transform="matrix(1,0,0,1,524.865853767866,905.8791679999995) translate(0.004999999999999005 21.333333333333336)"/><g filter="url(#z)"><path d="M597.67 1430.33c0-4.4 3.58-8 8-8H829c4.42 0 8 3.6 8 8v99.34c0 4.4-3.58 8-8 8H605.67c-4.42 0-8-3.6-8-8z" stroke="#3d4752" stroke-width="4" fill="#fff"/><use xlink:href="#u" transform="matrix(1,0,0,1,612.6652892561983,1437.3333333333333) translate(28.024691358024683 18.111111111111107)"/><use xlink:href="#A" transform="matrix(1,0,0,1,612.6652892561983,1437.3333333333333) translate(58.765432098765416 18.111111111111107)"/><use xlink:href="#B" transform="matrix(1,0,0,1,612.6652892561983,1437.3333333333333) translate(124.19753086419752 18.111111111111107)"/><use xlink:href="#C" transform="matrix(1,0,0,1,612.6652892561983,1437.3333333333333) translate(162.28395061728395 18.111111111111107)"/><use xlink:href="#D" transform="matrix(1,0,0,1,612.6652892561983,1437.3333333333333) translate(15.06172839506172 47.44444444444444)"/><use xlink:href="#E" transform="matrix(1,0,0,1,612.6652892561983,1437.3333333333333) translate(75.37037037037035 47.44444444444444)"/><use xlink:href="#F" transform="matrix(1,0,0,1,612.6652892561983,1437.3333333333333) translate(74.25925925925927 76.77777777777777)"/></g><g filter="url(#G)"><path d="M232 1072.44c0-4.42 3.58-8 8-8h223.34c4.42 0 8 3.58 8 8v70c0 4.42-3.58 8-8 8H240c-4.42 0-8-3.58-8-8z" stroke="#3d4752" stroke-width="4" fill="#fff"/><use xlink:href="#H" transform="matrix(1,0,0,1,247,1079.4397799064666) translate(27.31481481481481 17.77777777777778)"/><use xlink:href="#I" transform="matrix(1,0,0,1,247,1079.4397799064666) translate(85.33950617283949 17.77777777777778)"/><use xlink:href="#J" transform="matrix(1,0,0,1,247,1079.4397799064666) translate(72.96296296296296 47.111111111111114)"/></g><path d="M882.12 292h-49.9v-4h49.9zm63.14 0h-29.14v-4h29.14z" fill="#494949"/><path d="M832.28 292h-2.7l.76-1.64-.7-2.36h2.64zM961.53 290l-14.27 4.64v-9.28z" fill="#494949"/><path d="M968 290l-22.74 7.4v-14.8zm-18.74 1.88l5.8-1.88-5.8-1.88z" fill="#494949"/><use xlink:href="#K" transform="matrix(1,0,0,1,882.1152036234869,274) translate(0.004999999999999005 21.333333333333336)"/><g filter="url(#r)"><path d="M710.42 1051.46c3.82-2.22 10-2.22 13.83 0l89.42 51.96c3.82 2.22 3.82 5.82 0 8.04l-89.42 51.96c-3.82 2.22-10 2.22-13.83 0L621 1111.46c-3.82-2.22-3.82-5.82 0-8.04z" stroke="#3d4752" stroke-width="4" fill="#fff"/><use xlink:href="#L" transform="matrix(1,0,0,1,629.0847107438017,1062.4397799064666) translate(21.925925925925924 34.77777777777778)"/><use xlink:href="#M" transform="matrix(1,0,0,1,629.0847107438017,1062.4397799064666) translate(105.69135802469135 34.77777777777778)"/><use xlink:href="#N" transform="matrix(1,0,0,1,629.0847107438017,1062.4397799064666) translate(33.654320987654316 64.11111111111111)"/></g><g filter="url(#r)"><path d="M710.42 1239.64c3.82-2.22 10-2.22 13.83 0l89.42 51.96c3.82 2.22 3.82 5.82 0 8.04l-89.42 51.96c-3.82 2.22-10 2.22-13.83 0L621 1299.64c-3.82-2.22-3.82-5.82 0-8.04z" stroke="#3d4752" stroke-width="4" fill="#fff"/><use xlink:href="#L" transform="matrix(1,0,0,1,629.0847107438017,1250.6226140351557) translate(10.81481481481481 34.77777777777778)"/><use xlink:href="#O" transform="matrix(1,0,0,1,629.0847107438017,1250.6226140351557) translate(94.58024691358024 34.77777777777778)"/><use xlink:href="#P" transform="matrix(1,0,0,1,629.0847107438017,1250.6226140351557) translate(16.4320987654321 64.11111111111111)"/></g><path d="M723.17 998.9h-4v-15.37h4z" fill="#494949"/><path d="M721.22 981.54l1.95-.25v2.3h-4v-2.3zM721.17 1041.8l-3.54-10.9h7.08z" fill="#494949"/><path d="M721.17 1048.26l-5.64-17.36h4.2l1.44 4.42 1.44-4.42h4.2z" fill="#494949"/><use xlink:href="#K" transform="matrix(1,0,0,1,704.1694214876034,998.8980215966805) translate(0.004999999999999005 21.333333333333336)"/><path d="M719.33 1185.53h-4v-16.44h4z" fill="#494949"/><path d="M717.4 1167.1l1.93-.25v2.3h-4v-2.3zM717.33 1229.5l-3.88-11.97h7.77z" fill="#494949"/><path d="M717.33 1235.97l-6-18.44h4.22l1.78 5.5 1.8-5.5h4.2z" fill="#494949"/><use xlink:href="#K" transform="matrix(1,0,0,1,700.3347107438017,1185.5311969708112) translate(0.004999999999999005 21.333333333333336)"/><g filter="url(#Q)"><path d="M232 1273.62c0-4.42 3.58-8 8-8h223.34c4.42 0 8 3.58 8 8v44c0 4.42-3.58 8-8 8H240c-4.42 0-8-3.58-8-8z" stroke="#3d4752" stroke-width="4" fill="#fff"/><use xlink:href="#R" transform="matrix(1,0,0,1,247,1280.6226140351557) translate(22.46913580246914 19.444444444444443)"/><use xlink:href="#S" transform="matrix(1,0,0,1,247,1280.6226140351557) translate(65.67901234567901 19.444444444444443)"/><use xlink:href="#T" transform="matrix(1,0,0,1,247,1280.6226140351557) translate(122.34567901234568 19.444444444444443)"/></g><path d="M522.95 1297.62h-26.87v-4h26.87zm91.1 0h-47.62v-4h47.6z" fill="#494949"/><path d="M616.03 1295.66l.67 1.96H614v-4h2.7zM494.08 1300.26l-14.27-4.64 14.28-4.63z" fill="#494949"/><path d="M496.08 1303l-22.74-7.38 22.74-7.4zm-9.8-7.38l5.8 1.9v-3.78z" fill="#494949"/><use xlink:href="#y" transform="matrix(1,0,0,1,522.9484983959652,1279.6226140351557) translate(0.004999999999999005 21.333333333333336)"/><path d="M522.95 1109.44h-26.87v-4h26.87zm91.1 0h-47.62v-4h47.6z" fill="#494949"/><path d="M616.03 1107.47l.67 1.97H614v-4h2.7zM494.08 1112.08l-14.27-4.64 14.28-4.64z" fill="#494949"/><path d="M496.08 1114.83l-22.74-7.4 22.74-7.38zm-9.8-7.4l5.8 1.9v-3.77z" fill="#494949"/><use xlink:href="#y" transform="matrix(1,0,0,1,522.9484983959652,1091.4397799064666) translate(0.004999999999999005 21.333333333333336)"/><path d="M719.33 1371.8h-4v-14.52h4z" fill="#494949"/><path d="M717.4 1355.28l1.93-.25v2.3h-4v-2.3zM717.33 1413.86l-3.26-10.05h6.53z" fill="#494949"/><path d="M717.33 1420.33l-5.37-16.52h4.2l1.17 3.6 1.17-3.6h4.2z" fill="#494949"/><use xlink:href="#K" transform="matrix(1,0,0,1,700.3347107438017,1371.8054088957247) translate(0.004999999999999005 21.333333333333336)"/><g filter="url(#G)"><path d="M597.67 1593c0-4.42 3.58-8 8-8H829c4.42 0 8 3.58 8 8v70c0 4.42-3.58 8-8 8H605.67c-4.42 0-8-3.58-8-8z" stroke="#3d4752" stroke-width="4" fill="#fff"/><use xlink:href="#U" transform="matrix(1,0,0,1,612.6652892561983,1600) translate(3.919753086419746 17.77777777777778)"/><use xlink:href="#c" transform="matrix(1,0,0,1,612.6652892561983,1600) translate(101.26543209876543 17.77777777777778)"/><use xlink:href="#V" transform="matrix(1,0,0,1,612.6652892561983,1600) translate(150.64814814814815 17.77777777777778)"/><use xlink:href="#W" transform="matrix(1,0,0,1,612.6652892561983,1600) translate(63.7037037037037 47.111111111111114)"/><use xlink:href="#X" transform="matrix(1,0,0,1,612.6652892561983,1600) translate(113.08641975308643 47.111111111111114)"/></g><path d="M717.33 1541.67v18.6" stroke="#494949" stroke-width="4" fill="none"/><path d="M719.33 1541.72h-4v-2.05h4z" fill="#494949"/><path d="M717.33 1576.53l-4.63-14.27h9.27z" stroke="#494949" stroke-width="4" fill="#494949"/><g filter="url(#r)"><path d="M710.42 1724.02c3.82-2.22 10-2.22 13.83 0l89.42 51.96c3.82 2.22 3.82 5.82 0 8.04l-89.42 51.96c-3.82 2.22-10 2.22-13.83 0L621 1784.02c-3.82-2.22-3.82-5.82 0-8.04z" stroke="#3d4752" stroke-width="4" fill="#fff"/><use xlink:href="#s" transform="matrix(1,0,0,1,629.0847107438017,1735) translate(49.7037037037037 34.77777777777778)"/><use xlink:href="#Y" transform="matrix(1,0,0,1,629.0847107438017,1735) translate(14.518518518518519 64.11111111111111)"/></g><g filter="url(#G)"><path d="M597.67 1915c0-4.42 3.58-8 8-8H829c4.42 0 8 3.58 8 8v70c0 4.42-3.58 8-8 8H605.67c-4.42 0-8-3.58-8-8z" stroke="#3d4752" stroke-width="4" fill="#fff"/><use xlink:href="#Z" transform="matrix(1,0,0,1,612.6652892561983,1922) translate(13.117283950617292 17.77777777777778)"/><use xlink:href="#aa" transform="matrix(1,0,0,1,612.6652892561983,1922) translate(83.42592592592592 17.77777777777778)"/><use xlink:href="#ab" transform="matrix(1,0,0,1,612.6652892561983,1922) translate(126.6358024691358 17.77777777777778)"/><use xlink:href="#ac" transform="matrix(1,0,0,1,612.6652892561983,1922) translate(83.39506172839506 47.111111111111114)"/></g><path d="M719.33 1856.33h-4v-14.68h4z" fill="#494949"/><path d="M717.4 1839.66l1.93-.25v2.3h-4v-2.3zM717.33 1898.53l-3.3-10.2h6.62z" fill="#494949"/><path d="M717.33 1905l-5.4-16.67h4.2l1.2 3.73 1.22-3.73h4.2z" fill="#494949"/><use xlink:href="#K" transform="matrix(1,0,0,1,700.3347107438017,1856.32743521148) translate(0.004999999999999005 21.333333333333336)"/><path d="M717.33 1997v15.26" stroke="#494949" stroke-width="4" fill="none"/><path d="M719.33 1997.05h-4V1995h4z" fill="#494949"/><path d="M717.33 2028.53l-4.63-14.27h9.27z" stroke="#494949" stroke-width="4" fill="#494949"/><g filter="url(#h)"><path d="M970 255c0-4.42 3.58-8 8-8h223.34c4.42 0 8 3.58 8 8v70c0 4.42-3.58 8-8 8H978c-4.42 0-8-3.58-8-8z" stroke="#3d4752" stroke-width="4" fill="#fff"/><use xlink:href="#ad" transform="matrix(1,0,0,1,984.9999999999998,262) translate(13.179012345679013 17.77777777777778)"/><use xlink:href="#ae" transform="matrix(1,0,0,1,984.9999999999998,262) translate(105.5864197530864 17.77777777777778)"/><use xlink:href="#af" transform="matrix(1,0,0,1,984.9999999999998,262) translate(77.9320987654321 47.111111111111114)"/></g><g filter="url(#ag)"><path d="M225.33 387.22c0-4.42 3.58-8 8-8h223.34c4.42 0 8 3.58 8 8v44c0 4.42-3.58 8-8 8H233.33c-4.42 0-8-3.58-8-8z" stroke="#3d4752" stroke-width="4" fill="#fff"/><use xlink:href="#Z" transform="matrix(1,0,0,1,240.3305785123967,394.218837644775) translate(19.90740740740742 19.444444444444443)"/><use xlink:href="#c" transform="matrix(1,0,0,1,240.3305785123967,394.218837644775) translate(90.21604938271605 19.444444444444443)"/><use xlink:href="#ah" transform="matrix(1,0,0,1,240.3305785123967,394.218837644775) translate(139.59876543209876 19.444444444444443)"/></g><path d="M228 1107.44h-88V409.22h60.6" stroke="#494949" stroke-width="4" fill="none"/><path d="M230 1109.44h-2.05v-4H230z" fill="#494949"/><path d="M216.86 409.22l-14.27 4.63v-9.27z" stroke="#494949" stroke-width="4" fill="#494949"/><path d="M228 1295.62H100v-886.4h100.6" stroke="#494949" stroke-width="4" fill="none"/><path d="M230 1297.62h-2.05v-4H230z" fill="#494949"/><path d="M216.86 409.22l-14.27 4.63v-9.27z" stroke="#494949" stroke-width="4" fill="#494949"/><path d="M345 375.22v-17.48" stroke="#494949" stroke-width="4" fill="none"/><path d="M347 377.22h-4v-2.05h4z" fill="#494949"/><path d="M345 341.47l4.64 14.27h-9.28z" stroke="#494949" stroke-width="4" fill="#494949"/><g filter="url(#r)"><path d="M714.25 684.02c3.82-2.22 10.02-2.22 13.84 0l89.4 51.96c3.82 2.22 3.82 5.82 0 8.04l-89.4 51.96c-3.83 2.22-10.03 2.22-13.85 0l-89.4-51.96c-3.83-2.22-3.83-5.82 0-8.04z" stroke="#3d4752" stroke-width="4" fill="#fff"/><use xlink:href="#s" transform="matrix(1,0,0,1,632.9194214876034,695) translate(49.7037037037037 34.77777777777778)"/><use xlink:href="#ai" transform="matrix(1,0,0,1,632.9194214876034,695) translate(8.962962962962962 64.11111111111111)"/></g><g filter="url(#h)"><path d="M601.5 561.6c0-4.42 3.58-8 8-8h223.34c4.42 0 8 3.58 8 8v70c0 4.42-3.58 8-8 8H609.5c-4.42 0-8-3.58-8-8z" stroke="#3d4752" stroke-width="4" fill="#fff"/><use xlink:href="#aj" transform="matrix(1,0,0,1,616.5,568.6003061681579) translate(34.074074074074076 17.77777777777778)"/><use xlink:href="#ak" transform="matrix(1,0,0,1,616.5,568.6003061681579) translate(103.14814814814815 17.77777777777778)"/><use xlink:href="#al" transform="matrix(1,0,0,1,616.5,568.6003061681579) translate(34.69135802469137 47.111111111111114)"/><use xlink:href="#am" transform="matrix(1,0,0,1,616.5,568.6003061681579) translate(112.4074074074074 47.111111111111114)"/></g><path d="M721.17 643.6v14" stroke="#494949" stroke-width="4" fill="none"/><path d="M723.17 643.65h-4v-2.05h4z" fill="#494949"/><path d="M721.17 673.87l-4.64-14.26h9.27z" stroke="#494949" stroke-width="4" fill="#494949"/><path d="M723.17 414.48h-4v-1.28h4zm0-40.74h-4v-22.02h4z" fill="#494949"/><path d="M723.17 351.78h-4v-2.22l1.4.22 2.6-.25zM721.17 430.75l-4.64-14.27h9.27z" fill="#494949"/><path d="M721.17 437.22l-7.4-22.74h14.8zm-1.88-18.74l1.87 5.8 1.88-5.8z" fill="#494949"/><use xlink:href="#an" transform="matrix(1,0,0,1,700.4627548209367,373.73805825672787) translate(0.004999999999999005 30.933333333333334)"/><path d="M1091.67 243h-4v-36H347v15.26h-4V203h748.67z" fill="#494949"/><path d="M1091.67 245h-4v-2.05h4zM345 238.53l-4.64-14.27h9.28z" fill="#494949"/><path d="M345 245l-7.4-22.74h14.8zm-1.88-18.74l1.88 5.8 1.88-5.8z" fill="#494949"/><path d="M721.17 509.66v19.2" stroke="#494949" stroke-width="4" fill="none"/><path d="M723.17 509.7h-4v-2.04h4z" fill="#494949"/><path d="M721.17 545.13l-4.64-14.27h9.27z" stroke="#494949" stroke-width="4" fill="#494949"/><path d="M723.17 811.2h-4v-9.55h4z" fill="#494949"/><path d="M721.22 799.66l1.95-.25v2.3h-4v-2.3zM721.17 855.75l-1.65-5.08h3.3z" fill="#494949"/><path d="M721.17 862.22l-3.75-11.55h7.5z" fill="#494949"/><use xlink:href="#ao" transform="matrix(1,0,0,1,703.4627548209367,811.2062506666664) translate(0.004999999999999005 30.933333333333334)"/><path d="M1262 742H824.46v-4H1258V238.07h4zm0-543.4h-4v-22.46H367.74v-4H1262z" fill="#494949"/><path d="M824.52 742h-2.7l.66-2.03-.67-1.97h2.72zM365.74 178.78l-14.27-4.64 14.27-4.64z" fill="#494949"/><path d="M367.74 181.53l-22.74-7.4 22.74-7.38zm-9.8-7.4l5.8 1.9v-3.77z" fill="#494949"/><use xlink:href="#an" transform="matrix(1,0,0,1,1239.2933333333333,198.6044015210034) translate(0.004999999999999005 30.933333333333334)"/><path d="M717.33 1675v22.6" stroke="#494949" stroke-width="4" fill="none"/><path d="M719.33 1675.05h-4V1673h4z" fill="#494949"/><path d="M717.33 1713.87l-4.63-14.26h9.27z" stroke="#494949" stroke-width="4" fill="#494949"/><path d="M1260.46 1782H820.63v-4h435.83v-278.35h4zm0-321.82h-4V762.74h4z" fill="#494949"/><path d="M820.68 1782h-2.7l.66-2.03-.67-1.97h2.7zM1263.1 760.74h-9.27l4.63-14.27z" fill="#494949"/><path d="M1265.85 762.74h-14.77l7.38-22.74zm-9.27-4h3.77l-1.9-5.8z" fill="#494949"/><use xlink:href="#an" transform="matrix(1,0,0,1,1237.7583250000002,1460.1842693929045) translate(0.004999999999999005 30.933333333333334)"/><g filter="url(#h)"><path d="M232 705c0-4.42 3.58-8 8-8h223.34c4.42 0 8 3.58 8 8v70c0 4.42-3.58 8-8 8H240c-4.42 0-8-3.58-8-8z" stroke="#3d4752" stroke-width="4" fill="#fff"/><use xlink:href="#ap" transform="matrix(1,0,0,1,247,712) translate(11.327160493827165 17.77777777777778)"/><use xlink:href="#w" transform="matrix(1,0,0,1,247,712) translate(98.85802469135803 17.77777777777778)"/><use xlink:href="#aq" transform="matrix(1,0,0,1,247,712) translate(124.72222222222223 17.77777777777778)"/><use xlink:href="#ar" transform="matrix(1,0,0,1,247,712) translate(75.98765432098766 47.111111111111114)"/></g><path d="M576.76 474.44H182v445.44h46v4h-50V470.44h398.76z" fill="#494949"/><path d="M230 923.88h-2.05v-4H230zM593.03 472.44l-14.27 4.64v-9.28z" fill="#494949"/><path d="M599.5 472.44l-22.74 7.4v-14.8zm-18.74 1.88l5.8-1.88-5.8-1.88z" fill="#494949"/><path d="M351.67 693V472.44h225.1" stroke="#494949" stroke-width="4" fill="none"/><path d="M353.67 695h-4v-2.05h4z" fill="#494949"/><path d="M593.03 472.44l-14.27 4.64v-9.28z" stroke="#494949" stroke-width="4" fill="#494949"/><path d="M503.53 742h-7.45v-4h7.45zm114.34 0H589.7v-4h28.17z" fill="#494949"/><path d="M619.86 740.03l.67 1.97h-2.7v-4h2.7zM494.08 744.64L479.8 740l14.28-4.64z" fill="#494949"/><path d="M496.08 747.4l-22.74-7.4 22.74-7.4zm-9.8-7.4l5.8 1.88v-3.76z" fill="#494949"/><use xlink:href="#as" transform="matrix(1,0,0,1,503.52659450860676,720.2666666666667) translate(0.005000000000002558 30.933333333333334)"/><defs><path fill="#3d4752" d="M30-248c87 1 191-15 191 75 0 78-77 80-158 76V0H30v-248zm33 125c57 0 124 11 124-50 0-59-68-47-124-48v98" id="at"/><path fill="#3d4752" d="M24 0v-261h32V0H24" id="au"/><path fill="#3d4752" d="M100-194c62-1 85 37 85 99 1 63-27 99-86 99S16-35 15-95c0-66 28-99 85-99zM99-20c44 1 53-31 53-75 0-43-8-75-51-75s-53 32-53 75 10 74 51 75" id="av"/><path fill="#3d4752" d="M59-47c-2 24 18 29 38 22v24C64 9 27 4 27-40v-127H5v-23h24l9-43h21v43h35v23H59v120" id="aw"/><g id="b"><use transform="matrix(0.06172839506172839,0,0,0.06172839506172839,0,0)" xlink:href="#at"/><use transform="matrix(0.06172839506172839,0,0,0.06172839506172839,14.814814814814813,0)" xlink:href="#au"/><use transform="matrix(0.06172839506172839,0,0,0.06172839506172839,19.691358024691354,0)" xlink:href="#av"/><use transform="matrix(0.06172839506172839,0,0,0.06172839506172839,32.03703703703703,0)" xlink:href="#aw"/></g><path fill="#3d4752" d="M85-194c31 0 48 13 60 33l-1-100h32l1 261h-30c-2-10 0-23-3-31C134-8 116 4 85 4 32 4 16-35 15-94c0-66 23-100 70-100zm9 24c-40 0-46 34-46 75 0 40 6 74 45 74 42 0 51-32 51-76 0-42-9-74-50-73" id="ax"/><path fill="#3d4752" d="M141-36C126-15 110 5 73 4 37 3 15-17 15-53c-1-64 63-63 125-63 3-35-9-54-41-54-24 1-41 7-42 31l-33-3c5-37 33-52 76-52 45 0 72 20 72 64v82c-1 20 7 32 28 27v20c-31 9-61-2-59-35zM48-53c0 20 12 33 32 33 41-3 63-29 60-74-43 2-92-5-92 41" id="ay"/><g id="c"><use transform="matrix(0.06172839506172839,0,0,0.06172839506172839,0,0)" xlink:href="#ax"/><use transform="matrix(0.06172839506172839,0,0,0.06172839506172839,12.345679012345679,0)" xlink:href="#ay"/><use transform="matrix(0.06172839506172839,0,0,0.06172839506172839,24.691358024691358,0)" xlink:href="#aw"/><use transform="matrix(0.06172839506172839,0,0,0.06172839506172839,30.864197530864196,0)" xlink:href="#ay"/></g><path fill="#3d4752" d="M87 75C49 33 22-17 22-94c0-76 28-126 65-167h31c-38 41-64 92-64 168S80 34 118 75H87" id="az"/><path fill="#3d4752" d="M177-190C167-65 218 103 67 71c-23-6-38-20-44-43l32-5c15 47 100 32 89-28v-30C133-14 115 1 83 1 29 1 15-40 15-95c0-56 16-97 71-98 29-1 48 16 59 35 1-10 0-23 2-32h30zM94-22c36 0 50-32 50-73 0-42-14-75-50-75-39 0-46 34-46 75s6 73 46 73" id="aA"/><path fill="#3d4752" d="M114-163C36-179 61-72 57 0H25l-1-190h30c1 12-1 29 2 39 6-27 23-49 58-41v29" id="aB"/><path fill="#3d4752" d="M115-194c55 1 70 41 70 98S169 2 115 4C84 4 66-9 55-30l1 105H24l-1-265h31l2 30c10-21 28-34 59-34zm-8 174c40 0 45-34 45-75s-6-73-45-74c-42 0-51 32-51 76 0 43 10 73 51 73" id="aC"/><path fill="#3d4752" d="M106-169C34-169 62-67 57 0H25v-261h32l-1 103c12-21 28-36 61-36 89 0 53 116 60 194h-32v-121c2-32-8-49-39-48" id="aD"/><path fill="#3d4752" d="M33-261c38 41 65 92 65 168S71 34 33 75H2C39 34 66-17 66-93S39-220 2-261h31" id="aE"/><g id="d"><use transform="matrix(0.06172839506172839,0,0,0.06172839506172839,0,0)" xlink:href="#az"/><use transform="matrix(0.06172839506172839,0,0,0.06172839506172839,7.345679012345679,0)" xlink:href="#aA"/><use transform="matrix(0.06172839506172839,0,0,0.06172839506172839,19.691358024691358,0)" xlink:href="#aB"/><use transform="matrix(0.06172839506172839,0,0,0.06172839506172839,27.037037037037038,0)" xlink:href="#ay"/><use transform="matrix(0.06172839506172839,0,0,0.06172839506172839,39.382716049382715,0)" xlink:href="#aC"/><use transform="matrix(0.06172839506172839,0,0,0.06172839506172839,51.72839506172839,0)" xlink:href="#aD"/><use transform="matrix(0.06172839506172839,0,0,0.06172839506172839,64.07407407407408,0)" xlink:href="#aE"/></g><filter id="a" filterUnits="objectBoundingBox" x="-.04" y="-.06" width="1.08" height="1.3"><feOffset result="offOut" in="SourceAlpha" dy="6"/><feGaussianBlur result="blurOut" in="offOut" stdDeviation="5"/><feColorMatrix result="colorOut" in="blurOut" values="0 0 0 0 0 0 0 0 0 0 0 0 0 0 0 0 0 0 0.16862745098039217 0"/><feBlend in="SourceGraphic" in2="colorOut"/></filter><path fill="#3d4752" d="M185-189c-5-48-123-54-124 2 14 75 158 14 163 119 3 78-121 87-175 55-17-10-28-26-33-46l33-7c5 56 141 63 141-1 0-78-155-14-162-118-5-82 145-84 179-34 5 7 8 16 11 25" id="aF"/><g id="f"><use transform="matrix(0.06172839506172839,0,0,0.06172839506172839,0,0)" xlink:href="#aF"/><use transform="matrix(0.06172839506172839,0,0,0.06172839506172839,14.814814814814813,0)" xlink:href="#aw"/><use transform="matrix(0.06172839506172839,0,0,0.06172839506172839,20.98765432098765,0)" xlink:href="#ay"/><use transform="matrix(0.06172839506172839,0,0,0.06172839506172839,33.33333333333333,0)" xlink:href="#aB"/><use transform="matrix(0.06172839506172839,0,0,0.06172839506172839,40.679012345679006,0)" xlink:href="#aw"/></g><path fill="#3d4752" d="M117-194c89-4 53 116 60 194h-32v-121c0-31-8-49-39-48C34-167 62-67 57 0H25l-1-190h30c1 10-1 24 2 32 11-22 29-35 61-36" id="aG"/><path fill="#3d4752" d="M179-190L93 31C79 59 56 82 12 73V49c39 6 53-20 64-50L1-190h34L92-34l54-156h33" id="aH"/><path fill="#3d4752" d="M135-143c-3-34-86-38-87 0 15 53 115 12 119 90S17 21 10-45l28-5c4 36 97 45 98 0-10-56-113-15-118-90-4-57 82-63 122-42 12 7 21 19 24 35" id="aI"/><path fill="#3d4752" d="M24-231v-30h32v30H24zM24 0v-190h32V0H24" id="aJ"/><g id="g"><use transform="matrix(0.06172839506172839,0,0,0.06172839506172839,0,0)" xlink:href="#ay"/><use transform="matrix(0.06172839506172839,0,0,0.06172839506172839,12.345679012345679,0)" xlink:href="#aG"/><use transform="matrix(0.06172839506172839,0,0,0.06172839506172839,24.691358024691358,0)" xlink:href="#ay"/><use transform="matrix(0.06172839506172839,0,0,0.06172839506172839,37.03703703703704,0)" xlink:href="#au"/><use transform="matrix(0.06172839506172839,0,0,0.06172839506172839,41.91358024691358,0)" xlink:href="#aH"/><use transform="matrix(0.06172839506172839,0,0,0.06172839506172839,53.0246913580247,0)" xlink:href="#aI"/><use transform="matrix(0.06172839506172839,0,0,0.06172839506172839,64.13580246913581,0)" xlink:href="#aJ"/><use transform="matrix(0.06172839506172839,0,0,0.06172839506172839,69.01234567901236,0)" xlink:href="#aI"/></g><filter id="e" filterUnits="objectBoundingBox" x="-.06" y="-.05" width="1.11" height="1.23"><feOffset result="offOut" in="SourceAlpha" dy="6"/><feGaussianBlur result="blurOut" in="offOut" stdDeviation="5"/><feColorMatrix result="colorOut" in="blurOut" values="0 0 0 0 0 0 0 0 0 0 0 0 0 0 0 0 0 0 0.16862745098039217 0"/><feBlend in="SourceGraphic" in2="colorOut"/></filter><path fill="#3d4752" d="M100-194c63 0 86 42 84 106H49c0 40 14 67 53 68 26 1 43-12 49-29l28 8c-11 28-37 45-77 45C44 4 14-33 15-96c1-61 26-98 85-98zm52 81c6-60-76-77-97-28-3 7-6 17-6 28h103" id="aK"/><g id="i"><use transform="matrix(0.06172839506172839,0,0,0.06172839506172839,0,0)" xlink:href="#at"/><use transform="matrix(0.06172839506172839,0,0,0.06172839506172839,14.814814814814813,0)" xlink:href="#aB"/><use transform="matrix(0.06172839506172839,0,0,0.06172839506172839,22.160493827160494,0)" xlink:href="#aK"/><use transform="matrix(0.06172839506172839,0,0,0.06172839506172839,34.50617283950617,0)" xlink:href="#aC"/><use transform="matrix(0.06172839506172839,0,0,0.06172839506172839,46.85185185185185,0)" xlink:href="#ay"/><use transform="matrix(0.06172839506172839,0,0,0.06172839506172839,59.197530864197525,0)" xlink:href="#aB"/><use transform="matrix(0.06172839506172839,0,0,0.06172839506172839,66.5432098765432,0)" xlink:href="#aK"/></g><path fill="#3d4752" d="M68-38c1 34 0 65-14 84H32c9-13 17-26 17-46H33v-38h35" id="aL"/><g id="j"><use transform="matrix(0.06172839506172839,0,0,0.06172839506172839,0,0)" xlink:href="#az"/><use transform="matrix(0.06172839506172839,0,0,0.06172839506172839,7.345679012345679,0)" xlink:href="#ax"/><use transform="matrix(0.06172839506172839,0,0,0.06172839506172839,19.691358024691358,0)" xlink:href="#ay"/><use transform="matrix(0.06172839506172839,0,0,0.06172839506172839,32.03703703703704,0)" xlink:href="#aw"/><use transform="matrix(0.06172839506172839,0,0,0.06172839506172839,38.20987654320988,0)" xlink:href="#ay"/><use transform="matrix(0.06172839506172839,0,0,0.06172839506172839,50.55555555555556,0)" xlink:href="#aL"/></g><path fill="#3d4752" d="M210-169c-67 3-38 105-44 169h-31v-121c0-29-5-50-35-48C34-165 62-65 56 0H25l-1-190h30c1 10-1 24 2 32 10-44 99-50 107 0 11-21 27-35 58-36 85-2 47 119 55 194h-31v-121c0-29-5-49-35-48" id="aM"/><g id="k"><use transform="matrix(0.06172839506172839,0,0,0.06172839506172839,0,0)" xlink:href="#aI"/><use transform="matrix(0.06172839506172839,0,0,0.06172839506172839,11.11111111111111,0)" xlink:href="#aJ"/><use transform="matrix(0.06172839506172839,0,0,0.06172839506172839,15.987654320987653,0)" xlink:href="#aM"/><use transform="matrix(0.06172839506172839,0,0,0.06172839506172839,34.44444444444444,0)" xlink:href="#aE"/></g><filter id="h" filterUnits="objectBoundingBox" x="-.04" y="-.05" width="1.08" height="1.23"><feOffset result="offOut" in="SourceAlpha" dy="6"/><feGaussianBlur result="blurOut" in="offOut" stdDeviation="5"/><feColorMatrix result="colorOut" in="blurOut" values="0 0 0 0 0 0 0 0 0 0 0 0 0 0 0 0 0 0 0.16862745098039217 0"/><feBlend in="SourceGraphic" in2="colorOut"/></filter><path fill="#3d4752" d="M30 0v-248h187v28H63v79h144v27H63v87h162V0H30" id="aN"/><g id="l"><use transform="matrix(0.06172839506172839,0,0,0.06172839506172839,0,0)" xlink:href="#aN"/><use transform="matrix(0.06172839506172839,0,0,0.06172839506172839,14.814814814814813,0)" xlink:href="#aG"/><use transform="matrix(0.06172839506172839,0,0,0.06172839506172839,27.160493827160494,0)" xlink:href="#ax"/></g><path fill="#3d4752" d="M33 0v-248h34V0H33" id="aO"/><g id="n"><use transform="matrix(0.06172839506172839,0,0,0.06172839506172839,0,0)" xlink:href="#aO"/><use transform="matrix(0.06172839506172839,0,0,0.06172839506172839,6.172839506172839,0)" xlink:href="#aI"/></g><g id="o"><use transform="matrix(0.06172839506172839,0,0,0.06172839506172839,0,0)" xlink:href="#aB"/><use transform="matrix(0.06172839506172839,0,0,0.06172839506172839,7.345679012345679,0)" xlink:href="#aK"/><use transform="matrix(0.06172839506172839,0,0,0.06172839506172839,19.691358024691358,0)" xlink:href="#ay"/><use transform="matrix(0.06172839506172839,0,0,0.06172839506172839,32.03703703703704,0)" xlink:href="#ax"/><use transform="matrix(0.06172839506172839,0,0,0.06172839506172839,44.382716049382715,0)" xlink:href="#aH"/></g><path fill="#3d4752" d="M101-234c-31-9-42 10-38 44h38v23H63V0H32v-167H5v-23h27c-7-52 17-82 69-68v24" id="aP"/><g id="p"><use transform="matrix(0.06172839506172839,0,0,0.06172839506172839,0,0)" xlink:href="#aP"/><use transform="matrix(0.06172839506172839,0,0,0.06172839506172839,6.172839506172839,0)" xlink:href="#av"/><use transform="matrix(0.06172839506172839,0,0,0.06172839506172839,18.51851851851852,0)" xlink:href="#aB"/></g><path fill="#3d4752" d="M103-251c84 0 111 97 45 133-19 10-37 24-39 52H78c0-63 77-55 77-114 0-30-21-42-52-43-32 0-53 17-56 46l-32-2c7-45 34-72 88-72zM77 0v-35h34V0H77" id="aQ"/><g id="q"><use transform="matrix(0.06172839506172839,0,0,0.06172839506172839,0,0)" xlink:href="#ay"/><use transform="matrix(0.06172839506172839,0,0,0.06172839506172839,12.345679012345679,0)" xlink:href="#aG"/><use transform="matrix(0.06172839506172839,0,0,0.06172839506172839,24.691358024691358,0)" xlink:href="#ay"/><use transform="matrix(0.06172839506172839,0,0,0.06172839506172839,37.03703703703704,0)" xlink:href="#au"/><use transform="matrix(0.06172839506172839,0,0,0.06172839506172839,41.91358024691358,0)" xlink:href="#aH"/><use transform="matrix(0.06172839506172839,0,0,0.06172839506172839,53.0246913580247,0)" xlink:href="#aI"/><use transform="matrix(0.06172839506172839,0,0,0.06172839506172839,64.13580246913581,0)" xlink:href="#aJ"/><use transform="matrix(0.06172839506172839,0,0,0.06172839506172839,69.01234567901236,0)" xlink:href="#aI"/><use transform="matrix(0.06172839506172839,0,0,0.06172839506172839,80.12345679012347,0)" xlink:href="#aQ"/></g><filter id="m" filterUnits="objectBoundingBox" x="-.04" y="-.03" width="1.09" height="1.17"><feOffset result="offOut" in="SourceAlpha" dy="6"/><feGaussianBlur result="blurOut" in="offOut" stdDeviation="5"/><feColorMatrix result="colorOut" in="blurOut" values="0 0 0 0 0 0 0 0 0 0 0 0 0 0 0 0 0 0 0.16862745098039217 0"/><feBlend in="SourceGraphic" in2="colorOut"/></filter><path fill="#3d4752" d="M233-177c-1 41-23 64-60 70L243 0h-38l-65-103H63V0H30v-248c88 3 205-21 203 71zM63-129c60-2 137 13 137-47 0-61-80-42-137-45v92" id="aR"/><path fill="#3d4752" d="M145-31C134-9 116 4 85 4 32 4 16-35 15-94c0-59 17-99 70-100 32-1 48 14 60 33 0-11-1-24 2-32h30l-1 268h-32zM93-21c41 0 51-33 51-76s-8-73-50-73c-40 0-46 35-46 75s5 74 45 74" id="aS"/><path fill="#3d4752" d="M84 4C-5 8 30-112 23-190h32v120c0 31 7 50 39 49 72-2 45-101 50-169h31l1 190h-30c-1-10 1-25-2-33-11 22-28 36-60 37" id="aT"/><g id="s"><use transform="matrix(0.06172839506172839,0,0,0.06172839506172839,0,0)" xlink:href="#aR"/><use transform="matrix(0.06172839506172839,0,0,0.06172839506172839,15.987654320987653,0)" xlink:href="#aK"/><use transform="matrix(0.06172839506172839,0,0,0.06172839506172839,28.333333333333332,0)" xlink:href="#aS"/><use transform="matrix(0.06172839506172839,0,0,0.06172839506172839,40.67901234567901,0)" xlink:href="#aT"/><use transform="matrix(0.06172839506172839,0,0,0.06172839506172839,53.02469135802469,0)" xlink:href="#aJ"/><use transform="matrix(0.06172839506172839,0,0,0.06172839506172839,57.901234567901234,0)" xlink:href="#aB"/><use transform="matrix(0.06172839506172839,0,0,0.06172839506172839,65.24691358024691,0)" xlink:href="#aK"/></g><path fill="#3d4752" d="M96-169c-40 0-48 33-48 73s9 75 48 75c24 0 41-14 43-38l32 2c-6 37-31 61-74 61-59 0-76-41-82-99-10-93 101-131 147-64 4 7 5 14 7 22l-32 3c-4-21-16-35-41-35" id="aU"/><path fill="#3d4752" d="M115-194c53 0 69 39 70 98 0 66-23 100-70 100C84 3 66-7 56-30L54 0H23l1-261h32v101c10-23 28-34 59-34zm-8 174c40 0 45-34 45-75 0-40-5-75-45-74-42 0-51 32-51 76 0 43 10 73 51 73" id="aV"/><g id="t"><use transform="matrix(0.06172839506172839,0,0,0.06172839506172839,0,0)" xlink:href="#aU"/><use transform="matrix(0.06172839506172839,0,0,0.06172839506172839,11.11111111111111,0)" xlink:href="#ay"/><use transform="matrix(0.06172839506172839,0,0,0.06172839506172839,23.45679012345679,0)" xlink:href="#au"/><use transform="matrix(0.06172839506172839,0,0,0.06172839506172839,28.333333333333336,0)" xlink:href="#aJ"/><use transform="matrix(0.06172839506172839,0,0,0.06172839506172839,33.20987654320988,0)" xlink:href="#aV"/><use transform="matrix(0.06172839506172839,0,0,0.06172839506172839,45.55555555555556,0)" xlink:href="#aB"/><use transform="matrix(0.06172839506172839,0,0,0.06172839506172839,52.901234567901234,0)" xlink:href="#ay"/><use transform="matrix(0.06172839506172839,0,0,0.06172839506172839,65.24691358024691,0)" xlink:href="#aw"/><use transform="matrix(0.06172839506172839,0,0,0.06172839506172839,71.41975308641975,0)" xlink:href="#aJ"/><use transform="matrix(0.06172839506172839,0,0,0.06172839506172839,76.29629629629629,0)" xlink:href="#av"/><use transform="matrix(0.06172839506172839,0,0,0.06172839506172839,88.64197530864197,0)" xlink:href="#aG"/><use transform="matrix(0.06172839506172839,0,0,0.06172839506172839,100.98765432098766,0)" xlink:href="#aQ"/></g><filter id="r" filterUnits="objectBoundingBox" x="-.05" y="-.03" width="1.1" height="1.17"><feOffset result="offOut" in="SourceAlpha" dy="6"/><feGaussianBlur result="blurOut" in="offOut" stdDeviation="5"/><feColorMatrix result="colorOut" in="blurOut" values="0 0 0 0 0 0 0 0 0 0 0 0 0 0 0 0 0 0 0.16862745098039217 0"/><feBlend in="SourceGraphic" in2="colorOut"/></filter><path fill="#3d4752" d="M63-220v92h138v28H63V0H30v-248h175v28H63" id="aW"/><g id="u"><use transform="matrix(0.06172839506172839,0,0,0.06172839506172839,0,0)" xlink:href="#aW"/><use transform="matrix(0.06172839506172839,0,0,0.06172839506172839,13.518518518518517,0)" xlink:href="#aJ"/><use transform="matrix(0.06172839506172839,0,0,0.06172839506172839,18.39506172839506,0)" xlink:href="#aw"/></g><path fill="#3d4752" d="M212-179c-10-28-35-45-73-45-59 0-87 40-87 99 0 60 29 101 89 101 43 0 62-24 78-52l27 14C228-24 195 4 139 4 59 4 22-46 18-125c-6-104 99-153 187-111 19 9 31 26 39 46" id="aX"/><path fill="#3d4752" d="M27 0v-27h64v-190l-56 39v-29l58-41h29v221h61V0H27" id="aY"/><g id="v"><use transform="matrix(0.06172839506172839,0,0,0.06172839506172839,0,0)" xlink:href="#aX"/><use transform="matrix(0.06172839506172839,0,0,0.06172839506172839,15.987654320987653,0)" xlink:href="#aY"/><use transform="matrix(0.06172839506172839,0,0,0.06172839506172839,28.333333333333332,0)" xlink:href="#aI"/></g><g id="w"><use transform="matrix(0.06172839506172839,0,0,0.06172839506172839,0,0)" xlink:href="#av"/><use transform="matrix(0.06172839506172839,0,0,0.06172839506172839,12.345679012345679,0)" xlink:href="#aB"/></g><path fill="#3d4752" d="M80-196l47-18 7 23-49 13 32 44-20 13-27-46-27 45-21-12 33-44-49-13 8-23 47 19-2-53h23" id="aZ"/><g id="x"><use transform="matrix(0.06172839506172839,0,0,0.06172839506172839,0,0)" xlink:href="#aC"/><use transform="matrix(0.06172839506172839,0,0,0.06172839506172839,12.345679012345679,0)" xlink:href="#aJ"/><use transform="matrix(0.06172839506172839,0,0,0.06172839506172839,17.22222222222222,0)" xlink:href="#aZ"/></g><path fill="#3d4752" d="M137-103V0h-34v-103L8-248h37l75 118 75-118h37" id="ba"/><g id="y"><use transform="matrix(0.07407407407407408,0,0,0.07407407407407408,0,0)" xlink:href="#ba"/><use transform="matrix(0.07407407407407408,0,0,0.07407407407407408,15.333333333333334,0)" xlink:href="#aK"/><use transform="matrix(0.07407407407407408,0,0,0.07407407407407408,30.148148148148152,0)" xlink:href="#aI"/></g><path fill="#3d4752" d="M143 0L79-87 56-68V0H24v-261h32v163l83-92h37l-77 82L181 0h-38" id="bb"/><g id="A"><use transform="matrix(0.06172839506172839,0,0,0.06172839506172839,0,0)" xlink:href="#aC"/><use transform="matrix(0.06172839506172839,0,0,0.06172839506172839,12.345679012345679,0)" xlink:href="#aK"/><use transform="matrix(0.06172839506172839,0,0,0.06172839506172839,24.691358024691358,0)" xlink:href="#ay"/><use transform="matrix(0.06172839506172839,0,0,0.06172839506172839,37.03703703703704,0)" xlink:href="#bb"/><use transform="matrix(0.06172839506172839,0,0,0.06172839506172839,48.14814814814815,0)" xlink:href="#aI"/></g><g id="B"><use transform="matrix(0.06172839506172839,0,0,0.06172839506172839,0,0)" xlink:href="#az"/><use transform="matrix(0.06172839506172839,0,0,0.06172839506172839,7.345679012345679,0)" xlink:href="#aP"/><use transform="matrix(0.06172839506172839,0,0,0.06172839506172839,13.518518518518519,0)" xlink:href="#aJ"/><use transform="matrix(0.06172839506172839,0,0,0.06172839506172839,18.395061728395063,0)" xlink:href="#aw"/><use transform="matrix(0.06172839506172839,0,0,0.06172839506172839,24.567901234567902,0)" xlink:href="#aE"/></g><g id="C"><use transform="matrix(0.06172839506172839,0,0,0.06172839506172839,0,0)" xlink:href="#av"/><use transform="matrix(0.06172839506172839,0,0,0.06172839506172839,12.345679012345679,0)" xlink:href="#aB"/></g><g id="D"><use transform="matrix(0.06172839506172839,0,0,0.06172839506172839,0,0)" xlink:href="#au"/><use transform="matrix(0.06172839506172839,0,0,0.06172839506172839,4.876543209876543,0)" xlink:href="#aJ"/><use transform="matrix(0.06172839506172839,0,0,0.06172839506172839,9.753086419753085,0)" xlink:href="#aG"/><use transform="matrix(0.06172839506172839,0,0,0.06172839506172839,22.098765432098766,0)" xlink:href="#aK"/><use transform="matrix(0.06172839506172839,0,0,0.06172839506172839,34.44444444444444,0)" xlink:href="#ay"/><use transform="matrix(0.06172839506172839,0,0,0.06172839506172839,46.79012345679012,0)" xlink:href="#aB"/></g><g id="E"><use transform="matrix(0.06172839506172839,0,0,0.06172839506172839,0,0)" xlink:href="#aU"/><use transform="matrix(0.06172839506172839,0,0,0.06172839506172839,11.11111111111111,0)" xlink:href="#av"/><use transform="matrix(0.06172839506172839,0,0,0.06172839506172839,23.45679012345679,0)" xlink:href="#aM"/><use transform="matrix(0.06172839506172839,0,0,0.06172839506172839,41.91358024691358,0)" xlink:href="#aV"/><use transform="matrix(0.06172839506172839,0,0,0.06172839506172839,54.25925925925926,0)" xlink:href="#aJ"/><use transform="matrix(0.06172839506172839,0,0,0.06172839506172839,59.135802469135804,0)" xlink:href="#aG"/><use transform="matrix(0.06172839506172839,0,0,0.06172839506172839,71.48148148148148,0)" xlink:href="#ay"/><use transform="matrix(0.06172839506172839,0,0,0.06172839506172839,83.82716049382717,0)" xlink:href="#aw"/><use transform="matrix(0.06172839506172839,0,0,0.06172839506172839,90,0)" xlink:href="#aJ"/><use transform="matrix(0.06172839506172839,0,0,0.06172839506172839,94.87654320987654,0)" xlink:href="#av"/><use transform="matrix(0.06172839506172839,0,0,0.06172839506172839,107.22222222222223,0)" xlink:href="#aG"/></g><g id="F"><use transform="matrix(0.06172839506172839,0,0,0.06172839506172839,0,0)" xlink:href="#az"/><use transform="matrix(0.06172839506172839,0,0,0.06172839506172839,7.345679012345679,0)" xlink:href="#au"/><use transform="matrix(0.06172839506172839,0,0,0.06172839506172839,12.222222222222221,0)" xlink:href="#aU"/><use transform="matrix(0.06172839506172839,0,0,0.06172839506172839,23.333333333333332,0)" xlink:href="#aM"/><use transform="matrix(0.06172839506172839,0,0,0.06172839506172839,41.79012345679012,0)" xlink:href="#aV"/><use transform="matrix(0.06172839506172839,0,0,0.06172839506172839,54.1358024691358,0)" xlink:href="#aE"/></g><filter id="z" filterUnits="objectBoundingBox" x="-.04" y="-.03" width="1.08" height="1.17"><feOffset result="offOut" in="SourceAlpha" dy="6"/><feGaussianBlur result="blurOut" in="offOut" stdDeviation="5"/><feColorMatrix result="colorOut" in="blurOut" values="0 0 0 0 0 0 0 0 0 0 0 0 0 0 0 0 0 0 0.16862745098039217 0"/><feBlend in="SourceGraphic" in2="colorOut"/></filter><g id="H"><use transform="matrix(0.06172839506172839,0,0,0.06172839506172839,0,0)" xlink:href="#aN"/><use transform="matrix(0.06172839506172839,0,0,0.06172839506172839,14.814814814814813,0)" xlink:href="#ax"/><use transform="matrix(0.06172839506172839,0,0,0.06172839506172839,27.160493827160494,0)" xlink:href="#aA"/><use transform="matrix(0.06172839506172839,0,0,0.06172839506172839,39.50617283950617,0)" xlink:href="#aK"/></g><g id="I"><use transform="matrix(0.06172839506172839,0,0,0.06172839506172839,0,0)" xlink:href="#aU"/><use transform="matrix(0.06172839506172839,0,0,0.06172839506172839,11.11111111111111,0)" xlink:href="#av"/><use transform="matrix(0.06172839506172839,0,0,0.06172839506172839,23.45679012345679,0)" xlink:href="#aB"/><use transform="matrix(0.06172839506172839,0,0,0.06172839506172839,30.80246913580247,0)" xlink:href="#aB"/><use transform="matrix(0.06172839506172839,0,0,0.06172839506172839,38.148148148148145,0)" xlink:href="#aK"/><use transform="matrix(0.06172839506172839,0,0,0.06172839506172839,50.49382716049382,0)" xlink:href="#aU"/><use transform="matrix(0.06172839506172839,0,0,0.06172839506172839,61.60493827160494,0)" xlink:href="#aw"/><use transform="matrix(0.06172839506172839,0,0,0.06172839506172839,67.77777777777777,0)" xlink:href="#aJ"/><use transform="matrix(0.06172839506172839,0,0,0.06172839506172839,72.65432098765432,0)" xlink:href="#av"/><use transform="matrix(0.06172839506172839,0,0,0.06172839506172839,85,0)" xlink:href="#aG"/></g><g id="J"><use transform="matrix(0.06172839506172839,0,0,0.06172839506172839,0,0)" xlink:href="#az"/><use transform="matrix(0.06172839506172839,0,0,0.06172839506172839,7.345679012345679,0)" xlink:href="#aK"/><use transform="matrix(0.06172839506172839,0,0,0.06172839506172839,19.691358024691358,0)" xlink:href="#ax"/><use transform="matrix(0.06172839506172839,0,0,0.06172839506172839,32.03703703703704,0)" xlink:href="#aA"/><use transform="matrix(0.06172839506172839,0,0,0.06172839506172839,44.382716049382715,0)" xlink:href="#aK"/><use transform="matrix(0.06172839506172839,0,0,0.06172839506172839,56.72839506172839,0)" xlink:href="#aE"/></g><filter id="G" filterUnits="objectBoundingBox" x="-.04" y="-.05" width="1.08" height="1.23"><feOffset result="offOut" in="SourceAlpha" dy="6"/><feGaussianBlur result="blurOut" in="offOut" stdDeviation="5"/><feColorMatrix result="colorOut" in="blurOut" values="0 0 0 0 0 0 0 0 0 0 0 0 0 0 0 0 0 0 0.16862745098039217 0"/><feBlend in="SourceGraphic" in2="colorOut"/></filter><path fill="#3d4752" d="M190 0L58-211 59 0H30v-248h39L202-35l-2-213h31V0h-41" id="bc"/><g id="K"><use transform="matrix(0.07407407407407408,0,0,0.07407407407407408,0,0)" xlink:href="#bc"/><use transform="matrix(0.07407407407407408,0,0,0.07407407407407408,19.185185185185187,0)" xlink:href="#av"/></g><g id="L"><use transform="matrix(0.06172839506172839,0,0,0.06172839506172839,0,0)" xlink:href="#aR"/><use transform="matrix(0.06172839506172839,0,0,0.06172839506172839,15.987654320987653,0)" xlink:href="#aK"/><use transform="matrix(0.06172839506172839,0,0,0.06172839506172839,28.333333333333332,0)" xlink:href="#aS"/><use transform="matrix(0.06172839506172839,0,0,0.06172839506172839,40.67901234567901,0)" xlink:href="#aT"/><use transform="matrix(0.06172839506172839,0,0,0.06172839506172839,53.02469135802469,0)" xlink:href="#aJ"/><use transform="matrix(0.06172839506172839,0,0,0.06172839506172839,57.901234567901234,0)" xlink:href="#aB"/><use transform="matrix(0.06172839506172839,0,0,0.06172839506172839,65.24691358024691,0)" xlink:href="#aK"/></g><g id="M"><use transform="matrix(0.06172839506172839,0,0,0.06172839506172839,0,0)" xlink:href="#aK"/><use transform="matrix(0.06172839506172839,0,0,0.06172839506172839,12.345679012345679,0)" xlink:href="#ax"/><use transform="matrix(0.06172839506172839,0,0,0.06172839506172839,24.691358024691358,0)" xlink:href="#aA"/><use transform="matrix(0.06172839506172839,0,0,0.06172839506172839,37.03703703703704,0)" xlink:href="#aK"/></g><g id="N"><use transform="matrix(0.06172839506172839,0,0,0.06172839506172839,0,0)" xlink:href="#aU"/><use transform="matrix(0.06172839506172839,0,0,0.06172839506172839,11.11111111111111,0)" xlink:href="#av"/><use transform="matrix(0.06172839506172839,0,0,0.06172839506172839,23.45679012345679,0)" xlink:href="#aB"/><use transform="matrix(0.06172839506172839,0,0,0.06172839506172839,30.80246913580247,0)" xlink:href="#aB"/><use transform="matrix(0.06172839506172839,0,0,0.06172839506172839,38.148148148148145,0)" xlink:href="#aK"/><use transform="matrix(0.06172839506172839,0,0,0.06172839506172839,50.49382716049382,0)" xlink:href="#aU"/><use transform="matrix(0.06172839506172839,0,0,0.06172839506172839,61.60493827160494,0)" xlink:href="#aw"/><use transform="matrix(0.06172839506172839,0,0,0.06172839506172839,67.77777777777777,0)" xlink:href="#aJ"/><use transform="matrix(0.06172839506172839,0,0,0.06172839506172839,72.65432098765432,0)" xlink:href="#av"/><use transform="matrix(0.06172839506172839,0,0,0.06172839506172839,85,0)" xlink:href="#aG"/><use transform="matrix(0.06172839506172839,0,0,0.06172839506172839,97.34567901234568,0)" xlink:href="#aQ"/></g><g id="O"><use transform="matrix(0.06172839506172839,0,0,0.06172839506172839,0,0)" xlink:href="#aI"/><use transform="matrix(0.06172839506172839,0,0,0.06172839506172839,11.11111111111111,0)" xlink:href="#aK"/><use transform="matrix(0.06172839506172839,0,0,0.06172839506172839,23.45679012345679,0)" xlink:href="#aU"/><use transform="matrix(0.06172839506172839,0,0,0.06172839506172839,34.5679012345679,0)" xlink:href="#av"/><use transform="matrix(0.06172839506172839,0,0,0.06172839506172839,46.913580246913575,0)" xlink:href="#aG"/><use transform="matrix(0.06172839506172839,0,0,0.06172839506172839,59.25925925925925,0)" xlink:href="#ax"/></g><path fill="#3d4752" d="M9 0v-24l116-142H16v-24h144v24L44-24h123V0H9" id="bd"/><g id="P"><use transform="matrix(0.06172839506172839,0,0,0.06172839506172839,0,0)" xlink:href="#aG"/><use transform="matrix(0.06172839506172839,0,0,0.06172839506172839,12.345679012345679,0)" xlink:href="#av"/><use transform="matrix(0.06172839506172839,0,0,0.06172839506172839,24.691358024691358,0)" xlink:href="#aB"/><use transform="matrix(0.06172839506172839,0,0,0.06172839506172839,32.03703703703704,0)" xlink:href="#aM"/><use transform="matrix(0.06172839506172839,0,0,0.06172839506172839,50.49382716049382,0)" xlink:href="#ay"/><use transform="matrix(0.06172839506172839,0,0,0.06172839506172839,62.8395061728395,0)" xlink:href="#au"/><use transform="matrix(0.06172839506172839,0,0,0.06172839506172839,67.71604938271604,0)" xlink:href="#aJ"/><use transform="matrix(0.06172839506172839,0,0,0.06172839506172839,72.59259259259258,0)" xlink:href="#bd"/><use transform="matrix(0.06172839506172839,0,0,0.06172839506172839,83.7037037037037,0)" xlink:href="#ay"/><use transform="matrix(0.06172839506172839,0,0,0.06172839506172839,96.04938271604938,0)" xlink:href="#aw"/><use transform="matrix(0.06172839506172839,0,0,0.06172839506172839,102.22222222222221,0)" xlink:href="#aJ"/><use transform="matrix(0.06172839506172839,0,0,0.06172839506172839,107.09876543209876,0)" xlink:href="#av"/><use transform="matrix(0.06172839506172839,0,0,0.06172839506172839,119.44444444444444,0)" xlink:href="#aG"/><use transform="matrix(0.06172839506172839,0,0,0.06172839506172839,131.79012345679013,0)" xlink:href="#aQ"/></g><path fill="#3d4752" d="M101-251c82-7 93 87 43 132L82-64C71-53 59-42 53-27h129V0H18c2-99 128-94 128-182 0-28-16-43-45-43s-46 15-49 41l-32-3c6-41 34-60 81-64" id="be"/><g id="R"><use transform="matrix(0.06172839506172839,0,0,0.06172839506172839,0,0)" xlink:href="#be"/><use transform="matrix(0.06172839506172839,0,0,0.06172839506172839,12.345679012345679,0)" xlink:href="#aG"/><use transform="matrix(0.06172839506172839,0,0,0.06172839506172839,24.691358024691358,0)" xlink:href="#ax"/></g><g id="S"><use transform="matrix(0.06172839506172839,0,0,0.06172839506172839,0,0)" xlink:href="#aG"/><use transform="matrix(0.06172839506172839,0,0,0.06172839506172839,12.345679012345679,0)" xlink:href="#av"/><use transform="matrix(0.06172839506172839,0,0,0.06172839506172839,24.691358024691358,0)" xlink:href="#aB"/><use transform="matrix(0.06172839506172839,0,0,0.06172839506172839,32.03703703703704,0)" xlink:href="#aM"/></g><g id="T"><use transform="matrix(0.06172839506172839,0,0,0.06172839506172839,0,0)" xlink:href="#az"/><use transform="matrix(0.06172839506172839,0,0,0.06172839506172839,7.345679012345679,0)" xlink:href="#aG"/><use transform="matrix(0.06172839506172839,0,0,0.06172839506172839,19.691358024691358,0)" xlink:href="#av"/><use transform="matrix(0.06172839506172839,0,0,0.06172839506172839,32.03703703703704,0)" xlink:href="#aB"/><use transform="matrix(0.06172839506172839,0,0,0.06172839506172839,39.382716049382715,0)" xlink:href="#aM"/><use transform="matrix(0.06172839506172839,0,0,0.06172839506172839,57.839506172839506,0)" xlink:href="#aE"/></g><filter id="Q" filterUnits="objectBoundingBox" x="-.04" y="-.07" width="1.08" height="1.33"><feOffset result="offOut" in="SourceAlpha" dy="6"/><feGaussianBlur result="blurOut" in="offOut" stdDeviation="5"/><feColorMatrix result="colorOut" in="blurOut" values="0 0 0 0 0 0 0 0 0 0 0 0 0 0 0 0 0 0 0.16862745098039217 0"/><feBlend in="SourceGraphic" in2="colorOut"/></filter><g id="U"><use transform="matrix(0.06172839506172839,0,0,0.06172839506172839,0,0)" xlink:href="#aX"/><use transform="matrix(0.06172839506172839,0,0,0.06172839506172839,15.987654320987653,0)" xlink:href="#av"/><use transform="matrix(0.06172839506172839,0,0,0.06172839506172839,28.333333333333332,0)" xlink:href="#aM"/><use transform="matrix(0.06172839506172839,0,0,0.06172839506172839,46.79012345679012,0)" xlink:href="#aC"/><use transform="matrix(0.06172839506172839,0,0,0.06172839506172839,59.1358024691358,0)" xlink:href="#ay"/><use transform="matrix(0.06172839506172839,0,0,0.06172839506172839,71.48148148148148,0)" xlink:href="#aB"/><use transform="matrix(0.06172839506172839,0,0,0.06172839506172839,78.82716049382717,0)" xlink:href="#aK"/></g><g id="V"><use transform="matrix(0.06172839506172839,0,0,0.06172839506172839,0,0)" xlink:href="#az"/><use transform="matrix(0.06172839506172839,0,0,0.06172839506172839,7.345679012345679,0)" xlink:href="#aU"/><use transform="matrix(0.06172839506172839,0,0,0.06172839506172839,18.45679012345679,0)" xlink:href="#aM"/><use transform="matrix(0.06172839506172839,0,0,0.06172839506172839,36.91358024691358,0)" xlink:href="#aC"/><use transform="matrix(0.06172839506172839,0,0,0.06172839506172839,49.25925925925926,0)" xlink:href="#aL"/></g><g id="W"><use transform="matrix(0.06172839506172839,0,0,0.06172839506172839,0,0)" xlink:href="#ay"/><use transform="matrix(0.06172839506172839,0,0,0.06172839506172839,12.345679012345679,0)" xlink:href="#aG"/><use transform="matrix(0.06172839506172839,0,0,0.06172839506172839,24.691358024691358,0)" xlink:href="#ay"/><use transform="matrix(0.06172839506172839,0,0,0.06172839506172839,37.03703703703704,0)" xlink:href="#aL"/></g><g id="X"><use transform="matrix(0.06172839506172839,0,0,0.06172839506172839,0,0)" xlink:href="#aB"/><use transform="matrix(0.06172839506172839,0,0,0.06172839506172839,7.345679012345679,0)" xlink:href="#aw"/><use transform="matrix(0.06172839506172839,0,0,0.06172839506172839,13.518518518518519,0)" xlink:href="#av"/><use transform="matrix(0.06172839506172839,0,0,0.06172839506172839,25.864197530864196,0)" xlink:href="#aE"/></g><g id="Y"><use transform="matrix(0.06172839506172839,0,0,0.06172839506172839,0,0)" xlink:href="#aM"/><use transform="matrix(0.06172839506172839,0,0,0.06172839506172839,18.456790123456788,0)" xlink:href="#aK"/><use transform="matrix(0.06172839506172839,0,0,0.06172839506172839,30.80246913580247,0)" xlink:href="#ay"/><use transform="matrix(0.06172839506172839,0,0,0.06172839506172839,43.148148148148145,0)" xlink:href="#aI"/><use transform="matrix(0.06172839506172839,0,0,0.06172839506172839,54.25925925925925,0)" xlink:href="#aT"/><use transform="matrix(0.06172839506172839,0,0,0.06172839506172839,66.60493827160494,0)" xlink:href="#aB"/><use transform="matrix(0.06172839506172839,0,0,0.06172839506172839,73.95061728395062,0)" xlink:href="#aK"/><use transform="matrix(0.06172839506172839,0,0,0.06172839506172839,86.2962962962963,0)" xlink:href="#aM"/><use transform="matrix(0.06172839506172839,0,0,0.06172839506172839,104.75308641975309,0)" xlink:href="#aK"/><use transform="matrix(0.06172839506172839,0,0,0.06172839506172839,117.09876543209877,0)" xlink:href="#aG"/><use transform="matrix(0.06172839506172839,0,0,0.06172839506172839,129.44444444444446,0)" xlink:href="#aw"/><use transform="matrix(0.06172839506172839,0,0,0.06172839506172839,135.6172839506173,0)" xlink:href="#aQ"/></g><path fill="#3d4752" d="M141 0L90-78 38 0H4l68-98-65-92h35l48 74 47-74h35l-64 92 68 98h-35" id="bf"/><g id="Z"><use transform="matrix(0.06172839506172839,0,0,0.06172839506172839,0,0)" xlink:href="#aN"/><use transform="matrix(0.06172839506172839,0,0,0.06172839506172839,14.814814814814813,0)" xlink:href="#bf"/><use transform="matrix(0.06172839506172839,0,0,0.06172839506172839,25.925925925925924,0)" xlink:href="#aC"/><use transform="matrix(0.06172839506172839,0,0,0.06172839506172839,38.2716049382716,0)" xlink:href="#av"/><use transform="matrix(0.06172839506172839,0,0,0.06172839506172839,50.61728395061728,0)" xlink:href="#aB"/><use transform="matrix(0.06172839506172839,0,0,0.06172839506172839,57.962962962962955,0)" xlink:href="#aw"/></g><g id="aa"><use transform="matrix(0.06172839506172839,0,0,0.06172839506172839,0,0)" xlink:href="#ay"/><use transform="matrix(0.06172839506172839,0,0,0.06172839506172839,12.345679012345679,0)" xlink:href="#aG"/><use transform="matrix(0.06172839506172839,0,0,0.06172839506172839,24.691358024691358,0)" xlink:href="#ax"/></g><g id="ab"><use transform="matrix(0.06172839506172839,0,0,0.06172839506172839,0,0)" xlink:href="#aC"/><use transform="matrix(0.06172839506172839,0,0,0.06172839506172839,12.345679012345679,0)" xlink:href="#aT"/><use transform="matrix(0.06172839506172839,0,0,0.06172839506172839,24.691358024691358,0)" xlink:href="#aV"/><use transform="matrix(0.06172839506172839,0,0,0.06172839506172839,37.03703703703704,0)" xlink:href="#au"/><use transform="matrix(0.06172839506172839,0,0,0.06172839506172839,41.91358024691358,0)" xlink:href="#aJ"/><use transform="matrix(0.06172839506172839,0,0,0.06172839506172839,46.79012345679013,0)" xlink:href="#aI"/><use transform="matrix(0.06172839506172839,0,0,0.06172839506172839,57.90123456790124,0)" xlink:href="#aD"/></g><g id="ac"><use transform="matrix(0.06172839506172839,0,0,0.06172839506172839,0,0)" xlink:href="#ax"/><use transform="matrix(0.06172839506172839,0,0,0.06172839506172839,12.345679012345679,0)" xlink:href="#ay"/><use transform="matrix(0.06172839506172839,0,0,0.06172839506172839,24.691358024691358,0)" xlink:href="#aw"/><use transform="matrix(0.06172839506172839,0,0,0.06172839506172839,30.864197530864196,0)" xlink:href="#ay"/></g><g id="ad"><use transform="matrix(0.06172839506172839,0,0,0.06172839506172839,0,0)" xlink:href="#aF"/><use transform="matrix(0.06172839506172839,0,0,0.06172839506172839,14.814814814814813,0)" xlink:href="#aJ"/><use transform="matrix(0.06172839506172839,0,0,0.06172839506172839,19.691358024691354,0)" xlink:href="#aM"/><use transform="matrix(0.06172839506172839,0,0,0.06172839506172839,38.14814814814814,0)" xlink:href="#aT"/><use transform="matrix(0.06172839506172839,0,0,0.06172839506172839,50.493827160493815,0)" xlink:href="#au"/><use transform="matrix(0.06172839506172839,0,0,0.06172839506172839,55.37037037037036,0)" xlink:href="#ay"/><use transform="matrix(0.06172839506172839,0,0,0.06172839506172839,67.71604938271604,0)" xlink:href="#aw"/><use transform="matrix(0.06172839506172839,0,0,0.06172839506172839,73.88888888888887,0)" xlink:href="#aK"/></g><g id="ae"><use transform="matrix(0.06172839506172839,0,0,0.06172839506172839,0,0)" xlink:href="#aI"/><use transform="matrix(0.06172839506172839,0,0,0.06172839506172839,11.11111111111111,0)" xlink:href="#aC"/><use transform="matrix(0.06172839506172839,0,0,0.06172839506172839,23.45679012345679,0)" xlink:href="#aK"/><use transform="matrix(0.06172839506172839,0,0,0.06172839506172839,35.80246913580247,0)" xlink:href="#aU"/><use transform="matrix(0.06172839506172839,0,0,0.06172839506172839,46.91358024691358,0)" xlink:href="#aw"/><use transform="matrix(0.06172839506172839,0,0,0.06172839506172839,53.086419753086425,0)" xlink:href="#aB"/><use transform="matrix(0.06172839506172839,0,0,0.06172839506172839,60.4320987654321,0)" xlink:href="#aT"/><use transform="matrix(0.06172839506172839,0,0,0.06172839506172839,72.77777777777779,0)" xlink:href="#aM"/></g><g id="af"><use transform="matrix(0.06172839506172839,0,0,0.06172839506172839,0,0)" xlink:href="#az"/><use transform="matrix(0.06172839506172839,0,0,0.06172839506172839,7.345679012345679,0)" xlink:href="#aU"/><use transform="matrix(0.06172839506172839,0,0,0.06172839506172839,18.45679012345679,0)" xlink:href="#ay"/><use transform="matrix(0.06172839506172839,0,0,0.06172839506172839,30.80246913580247,0)" xlink:href="#au"/><use transform="matrix(0.06172839506172839,0,0,0.06172839506172839,35.67901234567901,0)" xlink:href="#aU"/><use transform="matrix(0.06172839506172839,0,0,0.06172839506172839,46.79012345679013,0)" xlink:href="#aE"/></g><g id="ah"><use transform="matrix(0.06172839506172839,0,0,0.06172839506172839,0,0)" xlink:href="#az"/><use transform="matrix(0.06172839506172839,0,0,0.06172839506172839,7.345679012345679,0)" xlink:href="#aK"/><use transform="matrix(0.06172839506172839,0,0,0.06172839506172839,19.691358024691358,0)" xlink:href="#bf"/><use transform="matrix(0.06172839506172839,0,0,0.06172839506172839,30.80246913580247,0)" xlink:href="#aC"/><use transform="matrix(0.06172839506172839,0,0,0.06172839506172839,43.148148148148145,0)" xlink:href="#aE"/></g><filter id="ag" filterUnits="objectBoundingBox" x="-.04" y="-.07" width="1.08" height="1.33"><feOffset result="offOut" in="SourceAlpha" dy="6"/><feGaussianBlur result="blurOut" in="offOut" stdDeviation="5"/><feColorMatrix result="colorOut" in="blurOut" values="0 0 0 0 0 0 0 0 0 0 0 0 0 0 0 0 0 0 0.16862745098039217 0"/><feBlend in="SourceGraphic" in2="colorOut"/></filter><g id="ai"><use transform="matrix(0.06172839506172839,0,0,0.06172839506172839,0,0)" xlink:href="#aM"/><use transform="matrix(0.06172839506172839,0,0,0.06172839506172839,18.456790123456788,0)" xlink:href="#aK"/><use transform="matrix(0.06172839506172839,0,0,0.06172839506172839,30.80246913580247,0)" xlink:href="#ay"/><use transform="matrix(0.06172839506172839,0,0,0.06172839506172839,43.148148148148145,0)" xlink:href="#aI"/><use transform="matrix(0.06172839506172839,0,0,0.06172839506172839,54.25925925925925,0)" xlink:href="#aT"/><use transform="matrix(0.06172839506172839,0,0,0.06172839506172839,66.60493827160494,0)" xlink:href="#aB"/><use transform="matrix(0.06172839506172839,0,0,0.06172839506172839,73.95061728395062,0)" xlink:href="#aK"/><use transform="matrix(0.06172839506172839,0,0,0.06172839506172839,86.2962962962963,0)" xlink:href="#aM"/><use transform="matrix(0.06172839506172839,0,0,0.06172839506172839,104.75308641975309,0)" xlink:href="#aK"/><use transform="matrix(0.06172839506172839,0,0,0.06172839506172839,117.09876543209877,0)" xlink:href="#aG"/><use transform="matrix(0.06172839506172839,0,0,0.06172839506172839,129.44444444444446,0)" xlink:href="#aw"/><use transform="matrix(0.06172839506172839,0,0,0.06172839506172839,135.6172839506173,0)" xlink:href="#aI"/><use transform="matrix(0.06172839506172839,0,0,0.06172839506172839,146.7283950617284,0)" xlink:href="#aQ"/></g><g id="aj"><use transform="matrix(0.06172839506172839,0,0,0.06172839506172839,0,0)" xlink:href="#aX"/><use transform="matrix(0.06172839506172839,0,0,0.06172839506172839,15.987654320987653,0)" xlink:href="#aD"/><use transform="matrix(0.06172839506172839,0,0,0.06172839506172839,28.333333333333332,0)" xlink:href="#aK"/><use transform="matrix(0.06172839506172839,0,0,0.06172839506172839,40.67901234567901,0)" xlink:href="#aU"/><use transform="matrix(0.06172839506172839,0,0,0.06172839506172839,51.79012345679013,0)" xlink:href="#bb"/></g><g id="ak"><use transform="matrix(0.06172839506172839,0,0,0.06172839506172839,0,0)" xlink:href="#aI"/><use transform="matrix(0.06172839506172839,0,0,0.06172839506172839,11.11111111111111,0)" xlink:href="#aC"/><use transform="matrix(0.06172839506172839,0,0,0.06172839506172839,23.45679012345679,0)" xlink:href="#aK"/><use transform="matrix(0.06172839506172839,0,0,0.06172839506172839,35.80246913580247,0)" xlink:href="#aU"/><use transform="matrix(0.06172839506172839,0,0,0.06172839506172839,46.91358024691358,0)" xlink:href="#aw"/><use transform="matrix(0.06172839506172839,0,0,0.06172839506172839,53.086419753086425,0)" xlink:href="#aB"/><use transform="matrix(0.06172839506172839,0,0,0.06172839506172839,60.4320987654321,0)" xlink:href="#ay"/></g><g id="al"><use transform="matrix(0.06172839506172839,0,0,0.06172839506172839,0,0)" xlink:href="#az"/><use transform="matrix(0.06172839506172839,0,0,0.06172839506172839,7.345679012345679,0)" xlink:href="#aU"/><use transform="matrix(0.06172839506172839,0,0,0.06172839506172839,18.45679012345679,0)" xlink:href="#aD"/><use transform="matrix(0.06172839506172839,0,0,0.06172839506172839,30.80246913580247,0)" xlink:href="#aK"/><use transform="matrix(0.06172839506172839,0,0,0.06172839506172839,43.148148148148145,0)" xlink:href="#aU"/><use transform="matrix(0.06172839506172839,0,0,0.06172839506172839,54.25925925925925,0)" xlink:href="#bb"/><use transform="matrix(0.06172839506172839,0,0,0.06172839506172839,65.37037037037037,0)" xlink:href="#aL"/></g><g id="am"><use transform="matrix(0.06172839506172839,0,0,0.06172839506172839,0,0)" xlink:href="#aC"/><use transform="matrix(0.06172839506172839,0,0,0.06172839506172839,12.345679012345679,0)" xlink:href="#aD"/><use transform="matrix(0.06172839506172839,0,0,0.06172839506172839,24.691358024691358,0)" xlink:href="#av"/><use transform="matrix(0.06172839506172839,0,0,0.06172839506172839,37.03703703703704,0)" xlink:href="#aw"/><use transform="matrix(0.06172839506172839,0,0,0.06172839506172839,43.20987654320988,0)" xlink:href="#av"/><use transform="matrix(0.06172839506172839,0,0,0.06172839506172839,55.55555555555556,0)" xlink:href="#aE"/></g><path fill="#3d4752" d="M219 0v-285L-1-733h99c56 123 110 244 166 367h4c59-123 110-244 168-367h96L312-285V0h-93" id="bg"/><path fill="#3d4752" d="M311 13C167 13 51-92 51-271c0-176 119-286 245-286 154-3 234 132 212 307H142c6 116 77 190 180 190 53 0 96-16 136-43l33 60c-48 31-106 56-180 56zM141-315h291c0-110-50-169-135-169-77 0-145 62-156 169" id="bh"/><path fill="#3d4752" d="M234 13C157 13 83-19 31-62l45-60c47 38 96 64 161 64 72 0 107-38 107-85 0-55-64-80-124-103-76-28-162-65-162-157 0-86 69-154 187-154 67 0 126 28 169 61l-44 59c-38-28-76-48-125-48-68 0-99 36-99 78 0 52 59 71 120 94 79 30 166 62 166 165 0 88-70 161-198 161" id="bi"/><g id="an"><use transform="matrix(0.02666666666666667,0,0,0.02666666666666667,0,0)" xlink:href="#bg"/><use transform="matrix(0.02666666666666667,0,0,0.02666666666666667,14.16,0)" xlink:href="#bh"/><use transform="matrix(0.02666666666666667,0,0,0.02666666666666667,28.933333333333334,0)" xlink:href="#bi"/></g><path fill="#3d4752" d="M100 0v-733h96c115 204 239 400 345 613h5c-18-192-10-405-12-613h88V0h-95C412-205 289-402 181-614h-4c17 193 10 407 11 614h-88" id="bj"/><path fill="#3d4752" d="M303 13C170 13 51-91 51-271c0-181 119-286 252-286s252 105 252 286C555-91 436 13 303 13zm0-76c94 0 158-83 158-208s-64-210-158-210-157 85-157 210S209-63 303-63" id="bk"/><g id="ao"><use transform="matrix(0.02666666666666667,0,0,0.02666666666666667,0,0)" xlink:href="#bj"/><use transform="matrix(0.02666666666666667,0,0,0.02666666666666667,19.253333333333334,0)" xlink:href="#bk"/></g><path fill="#3d4752" d="M30-248c118-7 216 8 213 122C240-48 200 0 122 0H30v-248zM63-27c89 8 146-16 146-99s-60-101-146-95v194" id="bl"/><g id="ap"><use transform="matrix(0.06172839506172839,0,0,0.06172839506172839,0,0)" xlink:href="#bl"/><use transform="matrix(0.06172839506172839,0,0,0.06172839506172839,15.987654320987653,0)" xlink:href="#aK"/><use transform="matrix(0.06172839506172839,0,0,0.06172839506172839,28.333333333333332,0)" xlink:href="#aG"/><use transform="matrix(0.06172839506172839,0,0,0.06172839506172839,40.67901234567901,0)" xlink:href="#av"/><use transform="matrix(0.06172839506172839,0,0,0.06172839506172839,53.02469135802469,0)" xlink:href="#aJ"/><use transform="matrix(0.06172839506172839,0,0,0.06172839506172839,57.901234567901234,0)" xlink:href="#aI"/><use transform="matrix(0.06172839506172839,0,0,0.06172839506172839,69.01234567901234,0)" xlink:href="#aK"/></g><path fill="#3d4752" d="M108 0H70L1-190h34L89-25l56-165h34" id="bm"/><g id="aq"><use transform="matrix(0.06172839506172839,0,0,0.06172839506172839,0,0)" xlink:href="#aB"/><use transform="matrix(0.06172839506172839,0,0,0.06172839506172839,7.345679012345679,0)" xlink:href="#aK"/><use transform="matrix(0.06172839506172839,0,0,0.06172839506172839,19.691358024691358,0)" xlink:href="#aM"/><use transform="matrix(0.06172839506172839,0,0,0.06172839506172839,38.148148148148145,0)" xlink:href="#av"/><use transform="matrix(0.06172839506172839,0,0,0.06172839506172839,50.49382716049382,0)" xlink:href="#bm"/><use transform="matrix(0.06172839506172839,0,0,0.06172839506172839,61.60493827160494,0)" xlink:href="#aK"/></g><g id="ar"><use transform="matrix(0.06172839506172839,0,0,0.06172839506172839,0,0)" xlink:href="#aI"/><use transform="matrix(0.06172839506172839,0,0,0.06172839506172839,11.11111111111111,0)" xlink:href="#aU"/><use transform="matrix(0.06172839506172839,0,0,0.06172839506172839,22.22222222222222,0)" xlink:href="#ay"/><use transform="matrix(0.06172839506172839,0,0,0.06172839506172839,34.5679012345679,0)" xlink:href="#aG"/><use transform="matrix(0.06172839506172839,0,0,0.06172839506172839,46.913580246913575,0)" xlink:href="#aI"/></g><path fill="#3d4752" d="M371 13C187 13 58-134 58-369s129-378 313-378 313 143 313 378S555 13 371 13zm0-81c131 0 218-118 218-301 0-184-87-297-218-297-132 0-218 113-218 297 0 183 86 301 218 301" id="bn"/><path fill="#3d4752" d="M92 229v-772h75l8 62h3c49-40 110-76 173-76 140 0 216 110 216 277C567-22 349 94 181-50c3 91 2 185 2 279H92zm91-349C317-1 471-73 472-279c0-120-40-201-143-201-46 0-93 26-146 75v285" id="bo"/><path fill="#3d4752" d="M263 13c-116 0-155-72-155-181v-301H27v-69l85-5 11-152h76v152h147v74H199v303c0 67 21 105 84 105 19 0 44-7 62-14l18 68c-31 10-67 20-100 20" id="bp"/><path fill="#3d4752" d="M92 0v-543h91V0H92zm46-655c-36 0-63-25-63-59 0-37 27-59 63-59s63 22 63 59c0 34-27 59-63 59" id="bq"/><path fill="#3d4752" d="M92 0v-543h75l8 78h3c52-51 108-92 182-92 114 0 166 74 166 213V0h-91v-332c0-102-31-145-103-145-56 0-94 28-149 83V0H92" id="br"/><g id="as"><use transform="matrix(0.02666666666666667,0,0,0.02666666666666667,0,0)" xlink:href="#bn"/><use transform="matrix(0.02666666666666667,0,0,0.02666666666666667,19.78666666666667,0)" xlink:href="#bo"/><use transform="matrix(0.02666666666666667,0,0,0.02666666666666667,36.32000000000001,0)" xlink:href="#bp"/><use transform="matrix(0.02666666666666667,0,0,0.02666666666666667,46.37333333333334,0)" xlink:href="#bq"/><use transform="matrix(0.02666666666666667,0,0,0.02666666666666667,53.70666666666668,0)" xlink:href="#bk"/><use transform="matrix(0.02666666666666667,0,0,0.02666666666666667,69.86666666666667,0)" xlink:href="#br"/></g></defs></g></svg>